<?xml version="1.0" standalone="no"?>
<!DOCTYPE svg PUBLIC "-//W3C//DTD SVG 1.0//EN" "http://www.w3.org/TR/2001/REC-SVG-20010904/DTD/svg10.dtd">
<svg xmlns="http://www.w3.org/2000/svg" xmlns:xlink="http://www.w3.org/1999/xlink" id="body_1" width="40" height="40">

<g transform="matrix(0.053191494 0 0 0.053191494 0 0)">
	<g>
        <path d="M537.49 339.06C 536.0681 406.783 483.50198 459.35 415.78 460.77C 348.057 462.6645 295.49 404.41498 294.07 339.06C 292.6481 271.337 350.898 218.76999 415.78 217.35C 483.503 215.9281 536.07 273.70502 537.49 339.06C 537.96265 354.216 561.64197 354.216 561.17 339.06C 559.2755 258.552 496.291 195.56 415.77997 193.67C 335.27197 191.7755 272.27997 261.393 270.38995 339.06C 268.49545 419.568 338.11295 482.56 415.77997 484.45C 496.28796 486.3445 559.27997 416.72702 561.17 339.06C 561.64264 323.904 537.963 323.904 537.49 339.06z" stroke="none" fill="#000000" fill-rule="nonzero" />
        <path d="M217.35 538.01L315.803 439.557L323.5061 447.2601L225.0531 545.71313L217.35 538.01z" stroke="none" fill="#000000" fill-rule="nonzero" />
        <path d="M307.33 431.41C 274.654 464.086 241.97498 496.765 208.82599 529.914C 204.09158 534.6484 204.09158 542.226 208.82599 546.488C 211.19319 548.85516 214.0369 551.69885 216.40408 554.0661C 221.13849 558.8005 228.71608 558.8005 232.97809 554.0661C 265.65408 521.3901 298.3331 488.7111 331.4821 455.5621C 336.2165 450.8277 336.2165 443.2501 331.4821 438.9881L331.4821 438.9881L323.904 431.41C 313.013 420.519 296.435 437.5662 307.33 447.984C 309.69717 450.3512 312.5409 453.19492 314.90808 455.5621L314.90808 455.5621L314.90808 438.9881C 282.2281 471.6641 249.08008 504.3431 216.40408 537.0191L216.40408 537.0191L232.97809 537.0191C 230.61089 534.6519 227.76718 531.8082 225.4 529.441L225.4 529.441L225.4 546.01495C 258.076 513.3389 290.755 480.65994 323.904 447.51096C 334.79898 437.09296 318.2204 420.51895 307.33 431.40897L307.33 431.40897L307.33 431.41z" stroke="none" fill="#000000" fill-rule="nonzero" />
	</g>
</g>
</svg>